<svg version="1.1" xmlns="http://www.w3.org/2000/svg" xmlns:xlink="http://www.w3.org/1999/xlink" width="59.64286" height="59.64286" viewBox="0,0,59.64286,59.64286">
    <g transform="translate(-210.17857,-150.17857)">
        <g fill="none" stroke-width="2.5" stroke-miterlimit="10">
            <path d="M263.89482,196.21429c-11.51289,0 -40.77072,0 -47.37395,0c-2.58601,0 -5.0923,-2.56124 -5.09229,-4.83245c0,-4.00726 0,-17.14064 0,-23.7395c0,-2.3387 2.27321,-3.85662 4.67212,-3.85662c6.45246,0 36.34862,0 47.89916,0c2.84054,0 4.57157,2.16258 4.57157,4.17175c0,3.78432 0,16.89106 0,23.84453c0,2.65452 -1.77455,4.41228 -4.67661,4.41228z" stroke-dasharray="2,2" stroke="currentColor"/>
            <path d="M223.78571,203.89481c0,-11.5129 0,-40.77072 0,-47.37395c0,-2.586 2.56124,-5.09229 4.83245,-5.09229c4.00726,0 17.14064,0 23.7395,0c2.3387,0 3.85662,2.27321 3.85662,4.67213c0,6.45246 0,36.34862 0,47.89916c0,2.84054 -2.16258,4.57157 -4.17175,4.57157c-3.78433,0 -16.89107,0 -23.84454,0c-2.65452,0 -4.41228,-1.77456 -4.41228,-4.67661z" stroke="currentColor"/>
        </g>
    </g>
</svg>